HIERARCHY
ROOT Hips
{
    OFFSET 0.000000 0.000000 0.000000
    CHANNELS 6 Xposition Yposition Zposition Zrotation Xrotation Yrotation
    JOINT Spine
    {
        OFFSET -0.000000 8.349382 0.000000
        CHANNELS 3 Zrotation Xrotation Yrotation
        JOINT Spine1
        {
            OFFSET -0.000000 23.269058 0.000000
            CHANNELS 3 Zrotation Xrotation Yrotation
            JOINT Neck
            {
                OFFSET -0.000000 23.173496 2.106681
                CHANNELS 3 Zrotation Xrotation Yrotation
                JOINT Head
                {
                    OFFSET -0.000000 14.255042 -2.036435
                    CHANNELS 3 Zrotation Xrotation Yrotation
                    End Site
                    {
                        OFFSET -0.000000 25.455433 0.000000
                    }
                }
            }
            JOINT LeftShoulder
            {
                OFFSET 3.917082 21.531742 0.000256
                CHANNELS 3 Zrotation Xrotation Yrotation
                JOINT LeftArm
                {
                    OFFSET 10.728225 0.000000 0.000000
                    CHANNELS 3 Zrotation Xrotation Yrotation
                    JOINT LeftForeArm
                    {
                        OFFSET 30.046112 0.000000 0.000000
                        CHANNELS 3 Zrotation Xrotation Yrotation
                        JOINT LeftHand
                        {
                            OFFSET 29.023712 0.000000 0.000000
                            CHANNELS 3 Zrotation Xrotation Yrotation
                            End Site
                            {
                                OFFSET 15.273261 0.000000 0.000000
                            }
                        }
                    }
                }
            }
            JOINT RightShoulder
            {
                OFFSET -3.920664 21.531742 0.000256
                CHANNELS 3 Zrotation Xrotation Yrotation
                JOINT RightArm
                {
                    OFFSET -10.728225 0.000000 0.000000
                    CHANNELS 3 Zrotation Xrotation Yrotation
                    JOINT RightForeArm
                    {
                        OFFSET -30.046112 0.000000 0.000000
                        CHANNELS 3 Zrotation Xrotation Yrotation
                        JOINT RightHand
                        {
                            OFFSET -29.023712 0.000000 0.000000
                            CHANNELS 3 Zrotation Xrotation Yrotation
                            End Site
                            {
                                OFFSET -15.273261 0.000000 0.000000
                            }
                        }
                    }
                }
            }
        }
    }
    JOINT LeftUpLeg
    {
        OFFSET 10.182174 0.000000 0.000000
        CHANNELS 3 Zrotation Xrotation Yrotation
        JOINT LeftLeg
        {
            OFFSET -0.000000 -49.689274 0.000000
            CHANNELS 3 Zrotation Xrotation Yrotation
            JOINT LeftFoot
            {
                OFFSET -0.000000 -39.155319 0.000000
                CHANNELS 3 Zrotation Xrotation Yrotation
                JOINT LeftToeBase
                {
                    OFFSET -0.000000 -6.618412 15.273261
                    CHANNELS 3 Zrotation Xrotation Yrotation
                    End Site
                    {
                        OFFSET -0.000000 0.000000 4.072869
                    }
                }
            }
        }
    }
    JOINT RightUpLeg
    {
        OFFSET -10.182174 0.000000 0.000000
        CHANNELS 3 Zrotation Xrotation Yrotation
        JOINT RightLeg
        {
            OFFSET -0.000000 -49.689274 0.000000
            CHANNELS 3 Zrotation Xrotation Yrotation
            JOINT RightFoot
            {
                OFFSET -0.000000 -39.155319 0.000000
                CHANNELS 3 Zrotation Xrotation Yrotation
                JOINT RightToeBase
                {
                    OFFSET -0.000000 -6.618412 15.273261
                    CHANNELS 3 Zrotation Xrotation Yrotation
                    End Site
                    {
                        OFFSET -0.000000 0.000000 4.072869
                    }
                }
            }
        }
    }
}
MOTION
Frames:    13
Frame Time:    0.008333
16.324564    38.299911    9.519276    6.917540    1.168544    92.289650    2.435310    30.646328    0.702246    3.444145    14.287456    0.937837    1.049109    -2.786536    2.808262    -6.113650    -25.671967    0.541620    10.108999    -2.294957    -27.484591    -26.616379    19.262396    -35.001534    4.091733    -13.291294    -20.322037    -13.226440    -12.648477    0.637035    -10.426997    2.384902    -2.029136    21.568609    33.637512    48.275810    -6.189794    -4.827160    17.433449    -3.552698    -4.227823    11.203899    52.598919    -67.988266    34.127720    -175.716080    25.049810    116.711594    -4.915337    -15.351436    28.154453    0.000000    0.000000    0.000000    -62.230591    -65.814781    -53.813950    -175.995361    30.005051    -115.609367    7.023213    -14.989859    -31.210924    0.000000    0.000000    0.000000    
16.502989    38.089771    9.532470    7.314379    1.114308    92.155746    2.478925    30.627769    0.655614    3.331562    14.180309    0.920054    1.031204    -2.614365    2.935673    -6.126532    -25.806404    0.667188    9.883153    -2.114141    -27.290369    -26.818356    19.401838    -34.583782    3.666740    -12.826360    -19.796427    -13.350347    -12.273403    0.627170    -10.389935    2.440332    -1.811785    21.450966    33.930630    48.301235    -5.651712    -4.554225    16.998161    -3.707696    -4.067431    10.993171    52.487068    -67.530128    33.712307    -175.871323    24.744823    116.622971    -5.160330    -15.425164    27.734169    0.000000    0.000000    0.000000    -61.741951    -65.571373    -53.275967    -175.904266    29.755842    -115.786743    7.299439    -14.771849    -30.633335    0.000000    0.000000    0.000000    
16.678043    37.900742    9.546652    7.787296    1.003120    92.024094    2.458759    30.641726    0.722781    3.409589    14.206946    0.971440    0.925323    -2.515821    2.964805    -6.099641    -25.985306    0.716965    9.694925    -1.970008    -27.243042    -26.982164    19.622261    -34.213554    3.275873    -12.480469    -19.316442    -13.010489    -12.012609    0.690449    -10.461289    2.455237    -1.778168    21.259325    34.323822    48.383854    -5.166934    -4.499182    16.557718    -3.680354    -4.100419    10.931795    52.077400    -67.085846    33.224876    -176.029114    24.582096    118.189087    -5.617001    -15.064408    25.990707    0.000000    0.000000    0.000000    -61.137241    -65.252113    -52.440018    -176.000320    29.583376    -116.052177    7.620330    -14.325877    -29.699081    0.000000    0.000000    0.000000    
16.838858    37.729679    9.544061    8.195780    0.962075    91.899635    2.421473    30.621874    0.796437    3.394079    14.197971    1.036646    1.036574    -2.517453    2.983899    -6.347188    -25.858837    0.634860    9.639688    -1.813656    -27.187458    -27.183676    19.727201    -33.967896    2.839005    -12.042216    -18.735409    -12.717286    -11.652714    0.630813    -10.474104    2.489918    -1.731800    21.136921    34.692383    48.380524    -4.852581    -4.264245    16.085732    -3.331412    -3.897417    10.908492    51.928112    -66.558907    32.612610    -176.021255    24.372702    118.283829    -5.756741    -14.767485    25.254650    0.000000    0.000000    0.000000    -60.464890    -65.013123    -52.015099    -175.756012    29.397652    -116.570831    7.796735    -14.187690    -29.190161    0.000000    0.000000    0.000000    
16.982365    37.548203    9.535260    8.439547    0.928223    91.787056    2.463956    30.444740    0.794715    3.308528    14.134686    1.054971    0.958526    -2.263230    3.004117    -6.320420    -26.115585    0.667327    9.457060    -1.713289    -27.211390    -27.426153    19.943180    -33.476231    2.476646    -11.647674    -18.148790    -12.424853    -11.327430    0.630856    -10.389564    2.633360    -1.615269    20.957581    34.924557    48.436871    -4.474279    -4.048322    15.546055    -3.172173    -3.741550    10.925315    52.170574    -66.169563    32.428574    -176.107605    24.131716    117.461433    -5.672520    -14.583780    25.430901    0.000000    0.000000    0.000000    -60.441059    -64.838058    -51.864353    -175.660797    29.216345    -116.826653    8.174963    -13.905084    -28.428284    0.000000    0.000000    0.000000    
17.140270    37.405895    9.528427    8.860349    0.866011    91.724266    2.553044    30.493412    0.769462    3.291428    14.079728    1.058919    0.827634    -2.183014    3.013035    -6.282335    -26.158463    0.710851    9.346019    -1.792017    -27.201488    -27.899260    20.061886    -33.019203    1.949346    -11.196512    -17.510288    -11.736630    -10.952611    0.501650    -10.441370    2.702933    -1.561877    20.902702    35.219872    48.503242    -4.129403    -3.912811    15.045197    -3.029308    -3.650880    10.666662    51.968460    -65.892319    31.935587    -176.177002    23.975563    118.239540    -6.145578    -14.072758    24.410669    0.000000    0.000000    0.000000    -60.087975    -64.483360    -51.191612    -175.774719    29.086401    -116.999817    8.507982    -13.457906    -27.652708    0.000000    0.000000    0.000000    
17.280293    37.252876    9.529331    9.134333    0.766242    91.667007    2.659349    30.420740    0.738268    3.288813    13.950436    1.059003    0.690998    -1.843619    2.872897    -6.208332    -26.493460    0.599417    9.133678    -1.595699    -27.155741    -28.073269    20.273653    -32.709900    1.533267    -11.006846    -16.849167    -10.840467    -10.832524    0.520782    -10.494673    2.758942    -1.414083    20.967445    35.569382    48.455143    -3.914587    -3.763279    14.432945    -2.539266    -3.505394    10.676089    52.161804    -65.700386    31.871037    -176.185059    23.854908    118.716354    -6.497152    -13.550709    23.751259    0.000000    0.000000    0.000000    -59.606724    -64.286552    -50.950909    -175.611740    28.909369    -117.683434    8.643133    -13.119380    -27.025417    0.000000    0.000000    0.000000    
17.390263    37.113506    9.517831    9.311363    0.710229    91.634224    2.769233    30.274357    0.676648    3.233010    13.832273    1.033673    0.693202    -1.831888    2.982066    -6.361980    -26.320383    0.665642    8.938651    -1.420337    -27.121908    -28.239365    20.533663    -32.378483    1.174942    -10.896600    -16.188143    -10.001276    -10.787930    0.643557    -10.548306    2.864202    -1.324538    21.001619    35.871769    48.541729    -3.694215    -3.740642    13.801081    -2.173467    -3.493187    10.468714    52.335751    -65.656067    31.999310    -176.320679    23.650936    119.539169    -6.810136    -13.167424    23.068932    0.000000    0.000000    0.000000    -59.654297    -64.145782    -50.845547    -175.690887    28.775852    -118.082771    8.731795    -12.489560    -26.424192    0.000000    0.000000    0.000000    
17.496323    37.006054    9.504964    9.560121    0.683837    91.631477    2.814892    30.249596    0.642139    3.240062    13.749241    1.012408    0.686902    -1.775131    3.001914    -6.476099    -26.366369    0.643470    8.861135    -1.416303    -26.998657    -28.593714    20.783787    -32.219318    0.782931    -10.927213    -15.423851    -8.908824    -10.872475    0.643643    -10.563041    2.880727    -1.352340    21.063925    36.126987    48.604900    -3.469211    -3.722893    13.200815    -1.795261    -3.482636    10.226710    52.103622    -65.686737    31.800457    -176.419525    23.469090    120.146584    -7.108976    -12.883890    22.836384    0.000000    0.000000    0.000000    -59.173935    -63.879822    -50.641548    -175.469940    28.597750    -118.266685    8.577425    -12.736699    -26.492666    0.000000    0.000000    0.000000    
17.616331    36.884518    9.518915    9.768061    0.565695    91.551903    2.802323    30.030928    0.702110    3.334570    13.965578    1.045427    0.759088    -1.985230    3.004073    -6.657370    -26.243114    0.573100    8.887835    -1.557319    -26.886692    -29.058025    21.077162    -32.056587    0.461365    -10.958059    -14.708636    -7.808687    -10.954999    0.824922    -10.684720    2.828228    -1.452480    21.218920    36.398235    48.668915    -3.297333    -3.900284    12.645685    -1.468782    -3.664465    10.036502    52.546047    -65.527298    32.028259    -176.478043    23.239258    119.876587    -7.176629    -12.572001    23.200788    0.000000    0.000000    0.000000    -58.782082    -63.755264    -50.194988    -175.596375    28.454859    -118.466415    8.648060    -12.671446    -26.067310    0.000000    0.000000    0.000000    
17.715124    36.809708    9.518605    10.023766    0.522637    91.560379    2.842106    30.034040    0.643926    3.376013    13.930493    0.993971    0.568994    -1.860995    2.951651    -6.412566    -26.529203    0.624524    8.756584    -1.524806    -26.772842    -29.360281    21.471384    -31.868847    0.245130    -11.170751    -14.077889    -6.544669    -11.227899    1.545954    -10.704274    2.887638    -1.483872    21.375620    36.519421    48.750256    -3.164848    -3.880183    12.031263    -0.700900    -3.608690    10.010504    52.413845    -65.456299    31.842472    -176.508926    23.062361    120.088326    -7.354113    -12.294323    23.298002    0.000000    0.000000    0.000000    -58.264828    -63.554909    -49.732338    -175.596664    28.334700    -118.861244    8.544401    -12.517653    -25.768644    0.000000    0.000000    0.000000    
17.799902    36.750233    9.519575    10.206595    0.510980    91.577568    2.783778    29.994980    0.642355    3.483360    13.874807    0.964363    0.239453    -2.089705    2.829014    -5.779079    -26.234947    0.797789    8.701097    -1.433215    -26.789932    -29.777203    21.721575    -31.686056    0.063115    -11.394130    -13.218946    -5.367261    -11.455611    1.491650    -10.693651    2.979111    -1.563872    21.648561    36.462048    48.718464    -2.782849    -3.918412    11.543525    -1.240764    -3.739817    9.418128    52.277851    -65.455803    31.632984    -176.524551    22.917454    120.198982    -7.375654    -12.070544    23.400219    0.000000    0.000000    0.000000    -57.938782    -63.402615    -49.374878    -175.628464    28.224947    -119.104958    8.520463    -12.393572    -25.547907    0.000000    0.000000    0.000000    
17.876053    36.718029    9.526730    10.361485    0.498610    91.583900    2.735227    30.011250    0.635967    3.525133    13.734461    0.944671    0.666373    -2.192187    3.022666    -6.518121    -26.024717    0.669450    8.779221    -1.348530    -26.959349    -30.496193    21.703161    -31.302675    -0.049651    -11.578032    -12.428677    -4.399232    -11.646710    1.681470    -10.595373    3.104081    -1.601712    21.954643    36.369656    48.592335    -2.474018    -3.977926    11.129762    -1.584184    -3.863308    9.100808    52.088787    -65.400589    31.243294    -176.491257    22.837286    120.218636    -7.466422    -11.896713    23.343243    0.000000    0.000000    0.000000    -57.427292    -63.304214    -49.053280    -175.505569    28.142700    -119.555283    8.543809    -12.432398    -25.337946    0.000000    0.000000    0.000000    
